<svg width="34" height="34" viewBox="0 0 34 34" fill="none" xmlns="http://www.w3.org/2000/svg">
<g id="Books">
<rect id="Rectangle 147" x="6.55243" y="5.32947" width="8.5" height="23.375" fill="url(#paint0_linear_2247_23021)"/>
<path id="Vector" d="M13.8125 4.51563H7.4375C6.94436 4.51563 6.47142 4.71153 6.12272 5.06023C5.77402 5.40893 5.57813 5.88187 5.57812 6.37501V27.625C5.57813 28.1181 5.77402 28.5911 6.12272 28.9398C6.47142 29.2885 6.94436 29.4844 7.4375 29.4844H13.8125C14.0567 29.4844 14.2985 29.4363 14.5241 29.3428C14.7496 29.2494 14.9546 29.1124 15.1273 28.9398C15.2999 28.7671 15.4369 28.5621 15.5303 28.3366C15.6238 28.111 15.6719 27.8692 15.6719 27.625V6.37501C15.6719 6.13083 15.6238 5.88904 15.5303 5.66345C15.4369 5.43786 15.2999 5.23289 15.1273 5.06023C14.9546 4.88757 14.7496 4.75061 14.5241 4.65717C14.2985 4.56373 14.0567 4.51563 13.8125 4.51563ZM7.17188 10.3594H14.0781V23.6406H7.17188V10.3594ZM7.4375 6.10938H13.8125C13.883 6.10938 13.9505 6.13737 14.0003 6.18718C14.0501 6.237 14.0781 6.30456 14.0781 6.37501V8.76563H7.17188V6.37501C7.17188 6.30456 7.19986 6.237 7.24968 6.18718C7.29949 6.13737 7.36705 6.10938 7.4375 6.10938ZM13.8125 27.8906H7.4375C7.36705 27.8906 7.29949 27.8626 7.24968 27.8128C7.19986 27.763 7.17188 27.6955 7.17188 27.625V25.2344H14.0781V27.625C14.0781 27.6955 14.0501 27.763 14.0003 27.8128C13.9505 27.8626 13.883 27.8906 13.8125 27.8906ZM30.507 25.8984L26.099 4.93532C26.0492 4.69533 25.9525 4.46755 25.8144 4.26508C25.6764 4.0626 25.4996 3.88942 25.2943 3.7555C25.0891 3.62158 24.8594 3.52956 24.6184 3.48473C24.3774 3.43991 24.13 3.44316 23.8903 3.4943L17.6734 4.8304C17.1922 4.93616 16.7722 5.22738 16.5044 5.64086C16.2366 6.05435 16.1427 6.55676 16.243 7.03907L20.651 27.9982C20.7012 28.239 20.7986 28.4675 20.9377 28.6704C21.0767 28.8733 21.2547 29.0466 21.4612 29.1802C21.7601 29.3758 22.1094 29.4801 22.4666 29.4804C22.6005 29.4811 22.7342 29.4669 22.865 29.4379L29.082 28.1031C29.5613 27.9962 29.9793 27.705 30.2459 27.2926C30.5125 26.8801 30.6063 26.3794 30.507 25.8984ZM19.5088 14.8325L26.2464 13.3848L28.1217 22.3045L21.3828 23.7482L19.5088 14.8325ZM18.6283 10.6409L25.3672 9.1893L25.9184 11.8203L19.1808 13.268L18.6283 10.6409ZM18.0094 6.39094L24.225 5.05618C24.2436 5.05438 24.2622 5.05438 24.2808 5.05618C24.3305 5.05624 24.379 5.07103 24.4202 5.09868C24.4508 5.1181 24.477 5.14355 24.4973 5.17347C24.5176 5.20339 24.5316 5.23714 24.5384 5.27266L25.0365 7.63938L18.3002 9.07641L17.8035 6.71501C17.788 6.64442 17.8009 6.57056 17.8394 6.50942C17.878 6.44827 17.939 6.40476 18.0094 6.38829V6.39094ZM28.742 26.5519L22.525 27.8906C22.4917 27.898 22.4573 27.8986 22.4238 27.8925C22.3902 27.8863 22.3583 27.8735 22.3298 27.8548C22.2993 27.8353 22.273 27.8099 22.2527 27.78C22.2324 27.7501 22.2184 27.7163 22.2116 27.6808L21.7135 25.3141L28.4498 23.8664L28.9531 26.2212C28.9609 26.2566 28.9617 26.2932 28.9553 26.3289C28.9489 26.3646 28.9354 26.3987 28.9158 26.4292C28.8962 26.4596 28.8707 26.486 28.8409 26.5066C28.811 26.5272 28.7774 26.5417 28.742 26.5492V26.5519Z" fill="#9894F9"/>
</g>
<defs>
<linearGradient id="paint0_linear_2247_23021" x1="10.8024" y1="5.32947" x2="10.8024" y2="28.7045" gradientUnits="userSpaceOnUse">
<stop stop-color="#3D3886"/>
<stop offset="1" stop-color="#332B46"/>
</linearGradient>
</defs>
</svg>
