<svg width="34" height="34" viewBox="0 0 34 34" fill="none" xmlns="http://www.w3.org/2000/svg">
<g id="FileText">
<path id="Vector 127" d="M20.5 4.5H7L6.5 29L27 29.5V11L20.5 4.5Z" fill="url(#paint0_linear_3102_56471)"/>
<path id="Vector" d="M28.3767 10.9358L20.9392 3.49828C20.8405 3.39965 20.7233 3.32143 20.5943 3.26811C20.4653 3.21478 20.3271 3.18739 20.1875 3.1875H7.4375C6.87391 3.1875 6.33341 3.41138 5.9349 3.8099C5.53638 4.20841 5.3125 4.74892 5.3125 5.3125V28.6875C5.3125 29.2511 5.53638 29.7916 5.9349 30.1901C6.33341 30.5886 6.87391 30.8125 7.4375 30.8125H26.5625C27.1261 30.8125 27.6666 30.5886 28.0651 30.1901C28.4636 29.7916 28.6875 29.2511 28.6875 28.6875V11.6875C28.6876 11.5479 28.6602 11.4097 28.6069 11.2807C28.5536 11.1517 28.4754 11.0345 28.3767 10.9358ZM21.25 6.81461L25.0604 10.625H21.25V6.81461ZM26.5625 28.6875H7.4375V5.3125H19.125V11.6875C19.125 11.9693 19.2369 12.2395 19.4362 12.4388C19.6355 12.6381 19.9057 12.75 20.1875 12.75H26.5625V28.6875ZM22.3125 18.0625C22.3125 18.3443 22.2006 18.6145 22.0013 18.8138C21.802 19.0131 21.5318 19.125 21.25 19.125H12.75C12.4682 19.125 12.198 19.0131 11.9987 18.8138C11.7994 18.6145 11.6875 18.3443 11.6875 18.0625C11.6875 17.7807 11.7994 17.5105 11.9987 17.3112C12.198 17.1119 12.4682 17 12.75 17H21.25C21.5318 17 21.802 17.1119 22.0013 17.3112C22.2006 17.5105 22.3125 17.7807 22.3125 18.0625ZM22.3125 22.3125C22.3125 22.5943 22.2006 22.8645 22.0013 23.0638C21.802 23.2631 21.5318 23.375 21.25 23.375H12.75C12.4682 23.375 12.198 23.2631 11.9987 23.0638C11.7994 22.8645 11.6875 22.5943 11.6875 22.3125C11.6875 22.0307 11.7994 21.7605 11.9987 21.5612C12.198 21.3619 12.4682 21.25 12.75 21.25H21.25C21.5318 21.25 21.802 21.3619 22.0013 21.5612C22.2006 21.7605 22.3125 22.0307 22.3125 22.3125Z" fill="#9894F9"/>
</g>
<defs>
<linearGradient id="paint0_linear_3102_56471" x1="16.75" y1="4.5" x2="16.75" y2="29.5" gradientUnits="userSpaceOnUse">
<stop stop-color="#3D3886"/>
<stop offset="1" stop-color="#332B46"/>
</linearGradient>
</defs>
</svg>
