<svg width="35" height="35" viewBox="0 0 35 35" fill="none" xmlns="http://www.w3.org/2000/svg">
<g id="Files">
<path id="Vector 127" d="M17.9766 9.52356H6.78146L6.36682 29.3073L23.3668 29.7111V14.7723L17.9766 9.52356Z" fill="url(#paint0_linear_3129_2113)"/>
<path id="Vector" d="M28.5076 9.43456L23.1951 4.12206C23.0963 4.02342 22.9791 3.94521 22.8501 3.89188C22.7212 3.83856 22.5829 3.81117 22.4434 3.81128H11.8184C11.2548 3.81128 10.7143 4.03516 10.3158 4.43368C9.91724 4.83219 9.69336 5.37269 9.69336 5.93628V8.06128H7.56836C7.00477 8.06128 6.46427 8.28516 6.06576 8.68368C5.66724 9.08219 5.44336 9.62269 5.44336 10.1863V29.3113C5.44336 29.8749 5.66724 30.4154 6.06576 30.8139C6.46427 31.2124 7.00477 31.4363 7.56836 31.4363H22.4434C23.0069 31.4363 23.5474 31.2124 23.946 30.8139C24.3445 30.4154 24.5684 29.8749 24.5684 29.3113V27.1863H26.6934C27.2569 27.1863 27.7974 26.9624 28.196 26.5639C28.5945 26.1654 28.8184 25.6249 28.8184 25.0613V10.1863C28.8185 10.0467 28.7911 9.90848 28.7378 9.7795C28.6844 9.65052 28.6062 9.53331 28.5076 9.43456ZM22.4434 29.3113H7.56836V10.1863H17.7537L22.4434 14.8759V26.1025C22.4434 26.1105 22.4434 26.1171 22.4434 26.1238C22.4434 26.1304 22.4434 26.1371 22.4434 26.145V29.3113ZM26.6934 25.0613H24.5684V14.4363C24.5685 14.2967 24.5411 14.1585 24.4878 14.0295C24.4344 13.9005 24.3562 13.7833 24.2576 13.6846L18.9451 8.37206C18.8463 8.27342 18.7291 8.19521 18.6001 8.14188C18.4712 8.08856 18.3329 8.06117 18.1934 8.06128H11.8184V5.93628H22.0037L26.6934 10.6259V25.0613ZM19.2559 20.8113C19.2559 21.0931 19.1439 21.3633 18.9447 21.5626C18.7454 21.7618 18.4752 21.8738 18.1934 21.8738H11.8184C11.5366 21.8738 11.2663 21.7618 11.0671 21.5626C10.8678 21.3633 10.7559 21.0931 10.7559 20.8113C10.7559 20.5295 10.8678 20.2592 11.0671 20.06C11.2663 19.8607 11.5366 19.7488 11.8184 19.7488H18.1934C18.4752 19.7488 18.7454 19.8607 18.9447 20.06C19.1439 20.2592 19.2559 20.5295 19.2559 20.8113ZM19.2559 25.0613C19.2559 25.3431 19.1439 25.6133 18.9447 25.8126C18.7454 26.0118 18.4752 26.1238 18.1934 26.1238H11.8184C11.5366 26.1238 11.2663 26.0118 11.0671 25.8126C10.8678 25.6133 10.7559 25.3431 10.7559 25.0613C10.7559 24.7795 10.8678 24.5092 11.0671 24.31C11.2663 24.1107 11.5366 23.9988 11.8184 23.9988H18.1934C18.4752 23.9988 18.7454 24.1107 18.9447 24.31C19.1439 24.5092 19.2559 24.7795 19.2559 25.0613Z" fill="#9894F9"/>
</g>
<defs>
<linearGradient id="paint0_linear_3129_2113" x1="14.8668" y1="9.52356" x2="14.8668" y2="29.7111" gradientUnits="userSpaceOnUse">
<stop stop-color="#3D3886"/>
<stop offset="1" stop-color="#332B46"/>
</linearGradient>
</defs>
</svg>
