<svg width="34" height="34" viewBox="0 0 34 34" fill="none" xmlns="http://www.w3.org/2000/svg">
<g id="iconoir:github-circle">
<g id="Group">
<path id="Vector" d="M17 31.1667C24.8243 31.1667 31.1667 24.8243 31.1667 17C31.1667 9.17579 24.8243 2.83337 17 2.83337C9.17576 2.83337 2.83334 9.17579 2.83334 17C2.83334 24.8243 9.17576 31.1667 17 31.1667Z" fill="url(#paint0_linear_3130_2427)" stroke="#9894F9" stroke-width="2.125" stroke-linecap="round" stroke-linejoin="round"/>
<path id="Vector_2" d="M20.3051 26.9167V24.2774C20.3405 23.8383 20.2796 23.3991 20.1266 22.984C19.9718 22.5691 19.7303 22.1919 19.4182 21.8776C22.3833 21.556 25.5 20.4609 25.5 15.4403C25.4973 14.1498 24.9887 12.9118 24.0833 11.9921C24.5159 10.8705 24.4853 9.62311 23.9983 8.5241C23.9983 8.5241 22.8834 8.20251 20.3051 9.88551C18.1387 9.31427 15.8613 9.31427 13.6949 9.88551C11.1166 8.20251 10.0017 8.52551 10.0017 8.52551C9.51543 9.62371 9.48486 10.87 9.91666 11.9907C9.00479 12.917 8.49564 14.1659 8.5 15.4658C8.5 20.451 11.6167 21.5447 14.5817 21.9031C14.2731 22.2146 14.0337 22.5878 13.8791 22.9982C13.7249 23.4055 13.662 23.8417 13.6949 24.276V26.9167" stroke="#9894F9" stroke-width="2.125" stroke-linecap="round" stroke-linejoin="round"/>
<path id="Vector_3" d="M13.6949 25.0779C10.8616 25.9718 8.50001 25.0779 7.08334 22.3182" stroke="#9894F9" stroke-width="2.125" stroke-linecap="round" stroke-linejoin="round"/>
</g>
</g>
<defs>
<linearGradient id="paint0_linear_3130_2427" x1="17" y1="2.83337" x2="17" y2="31.1667" gradientUnits="userSpaceOnUse">
<stop stop-color="#3D3886"/>
<stop offset="1" stop-color="#332B46"/>
</linearGradient>
</defs>
</svg>
