<svg width="17" height="17" viewBox="0 0 17 17" fill="none" xmlns="http://www.w3.org/2000/svg">
<g id="StarFour" clip-path="url(#clip0_2247_22915)">
<path id="Vector" d="M14.2898 10.0563C14.2482 10.2192 14.1568 10.3651 14.0283 10.4737C13.8999 10.5823 13.7409 10.6482 13.5733 10.6622L10.1279 10.9755L8.15551 13.8169C8.05913 13.9537 7.92318 14.0578 7.76592 14.1152C7.60865 14.1725 7.43761 14.1803 7.27576 14.1376C7.11392 14.0949 6.96902 14.0036 6.86055 13.8762C6.75208 13.7487 6.68521 13.591 6.66895 13.4244L6.35617 9.97921L3.51425 8.00665C3.37739 7.91028 3.2733 7.77432 3.21597 7.61706C3.15864 7.45979 3.15081 7.28875 3.19354 7.1269C3.23627 6.96506 3.3275 6.82017 3.45499 6.71169C3.58247 6.60322 3.7401 6.53636 3.9067 6.52009L7.35193 6.20731L9.32449 3.3654C9.42086 3.22854 9.55682 3.12445 9.71408 3.06712C9.87135 3.00978 10.0424 3.00196 10.2042 3.04468C10.3661 3.08741 10.511 3.17864 10.6194 3.30613C10.7279 3.43361 10.7948 3.59124 10.811 3.75784L11.1243 7.20321L13.9657 9.17563C14.1046 9.27055 14.2104 9.40635 14.2685 9.56418C14.3265 9.722 14.334 9.894 14.2898 10.0563Z" fill="#FDE68A"/>
</g>
<defs>
<clipPath id="clip0_2247_22915">
<rect width="13.1199" height="13.1199" fill="white" transform="translate(4.07178 0.574097) rotate(14.7884)"/>
</clipPath>
</defs>
</svg>
