<svg width="34" height="34" viewBox="0 0 34 34" fill="none" xmlns="http://www.w3.org/2000/svg">
<g id="TreeStructure">
<rect id="Rectangle 153" x="20" y="5" width="8" height="9" fill="url(#paint0_linear_3122_4338)"/>
<rect id="Rectangle 154" x="20" y="20" width="8" height="9" fill="url(#paint1_linear_3122_4338)"/>
<path id="Vector" d="M20.8394 15.0137H27.2144C27.7779 15.0137 28.3184 14.7898 28.717 14.3913C29.1155 13.9928 29.3394 13.4523 29.3394 12.8887V6.51367C29.3394 5.95009 29.1155 5.40958 28.717 5.01107C28.3184 4.61256 27.7779 4.38867 27.2144 4.38867H20.8394C20.2758 4.38867 19.7353 4.61256 19.3368 5.01107C18.9382 5.40958 18.7144 5.95009 18.7144 6.51367V8.63867H16.5894C15.744 8.63867 14.9332 8.9745 14.3355 9.57227C13.7377 10.17 13.4019 10.9808 13.4019 11.8262V16.0762H9.15186V15.0137C9.15186 14.4501 8.92797 13.9096 8.52946 13.5111C8.13094 13.1126 7.59044 12.8887 7.02686 12.8887H2.77686C2.21327 12.8887 1.67277 13.1126 1.27425 13.5111C0.875739 13.9096 0.651855 14.4501 0.651855 15.0137V19.2637C0.651855 19.8273 0.875739 20.3678 1.27425 20.7663C1.67277 21.1648 2.21327 21.3887 2.77686 21.3887H7.02686C7.59044 21.3887 8.13094 21.1648 8.52946 20.7663C8.92797 20.3678 9.15186 19.8273 9.15186 19.2637V18.2012H13.4019V22.4512C13.4019 23.2965 13.7377 24.1073 14.3355 24.7051C14.9332 25.3028 15.744 25.6387 16.5894 25.6387H18.7144V27.7637C18.7144 28.3273 18.9382 28.8678 19.3368 29.2663C19.7353 29.6648 20.2758 29.8887 20.8394 29.8887H27.2144C27.7779 29.8887 28.3184 29.6648 28.717 29.2663C29.1155 28.8678 29.3394 28.3273 29.3394 27.7637V21.3887C29.3394 20.8251 29.1155 20.2846 28.717 19.8861C28.3184 19.4876 27.7779 19.2637 27.2144 19.2637H20.8394C20.2758 19.2637 19.7353 19.4876 19.3368 19.8861C18.9382 20.2846 18.7144 20.8251 18.7144 21.3887V23.5137H16.5894C16.3076 23.5137 16.0373 23.4017 15.8381 23.2025C15.6388 23.0032 15.5269 22.733 15.5269 22.4512V11.8262C15.5269 11.5444 15.6388 11.2741 15.8381 11.0749C16.0373 10.8756 16.3076 10.7637 16.5894 10.7637H18.7144V12.8887C18.7144 13.4523 18.9382 13.9928 19.3368 14.3913C19.7353 14.7898 20.2758 15.0137 20.8394 15.0137ZM7.02686 19.2637H2.77686V15.0137H7.02686V19.2637ZM20.8394 21.3887H27.2144V27.7637H20.8394V21.3887ZM20.8394 6.51367H27.2144V12.8887H20.8394V6.51367Z" fill="#9894F9"/>
</g>
<defs>
<linearGradient id="paint0_linear_3122_4338" x1="24" y1="5" x2="24" y2="14" gradientUnits="userSpaceOnUse">
<stop stop-color="#3D3886"/>
<stop offset="1" stop-color="#332B46"/>
</linearGradient>
<linearGradient id="paint1_linear_3122_4338" x1="24" y1="20" x2="24" y2="29" gradientUnits="userSpaceOnUse">
<stop stop-color="#3D3886"/>
<stop offset="1" stop-color="#332B46"/>
</linearGradient>
</defs>
</svg>
